<svg width="40" height="28" viewBox="0 0 40 28" fill="none" xmlns="http://www.w3.org/2000/svg">
<g clip-path="url(#clip0)">
<path d="M21.5003 14.024C21.5003 18.0073 18.2932 21.2363 14.3372 21.2363C10.3812 21.2363 7.17383 18.0073 7.17383 14.024C7.17383 10.0408 10.381 6.81152 14.3372 6.81152C18.2934 6.81152 21.5003 10.0408 21.5003 14.024Z" fill="white"/>
<path d="M29.3587 14.0239C29.3587 17.7733 27.7551 20.814 25.777 20.814C23.7989 20.814 22.1953 17.7733 22.1953 14.0239C22.1953 10.2746 23.7986 7.23389 25.7768 7.23389C27.7549 7.23389 29.3584 10.2736 29.3584 14.0239" fill="white"/>
<path d="M32.5728 14.0242C32.5728 17.3827 32.0089 20.107 31.3132 20.107C30.6174 20.107 30.0537 17.3834 30.0537 14.0242C30.0537 10.665 30.6176 7.94141 31.3132 7.94141C32.0087 7.94141 32.5728 10.6647 32.5728 14.0242Z" fill="white"/>
</g>
<defs>
<clipPath id="clip0">
<rect width="39.7611" height="28" fill="white"/>
</clipPath>
</defs>
</svg>
