<svg width="1530" height="1236" viewBox="0 0 1530 1236" fill="none" xmlns="http://www.w3.org/2000/svg">
<g clip-path="url(#clip0)">
<path d="M994.5 677C993.678 690.527 1009.46 701.194 1022.5 697.5C1032.27 694.732 1039.15 687.135 1038.5 677C1037.9 667.614 1031.56 661.534 1022.5 659C1009.98 655.497 995.287 664.025 994.5 677Z" fill="black" stroke="black" stroke-width="16" stroke-linecap="round" stroke-linejoin="round"/>
<path d="M600.89 752.755C607.081 763.89 618.516 767.558 623.46 768C646.029 768 635.066 752.755 637 742.149C638.935 731.544 632.488 720.275 611.208 723.59C589.928 726.904 593.152 738.835 600.89 752.755Z" fill="black" stroke="black" stroke-width="16"/>
<path d="M867.581 138.423C876.5 29.9234 789.281 -23.6766 702.081 29.9234C593.081 96.9234 585.581 138.423 702.081 138.423C818.581 138.423 799.5 -45 529.5 54C259.5 153 517.581 394.923 523.081 236.923C527.481 110.523 357.584 164.423 293.082 236.923C228.58 309.423 158.482 437.623 262.082 402.423C391.582 358.423 243.582 280.423 137.582 376.423C31.582 472.423 -39.0026 710 46.4994 767C132.001 824 30.9995 557 30.9995 800.5" stroke="black" stroke-width="16" stroke-linecap="round" stroke-linejoin="round"/>
<path d="M1160 242.5C1149.67 244.167 1129.5 241.3 1131.5 216.5C1134 185.5 1212 159.5 1279 216.5C1346 273.5 1294 353.5 1258 338C1222 322.5 1364.5 206 1437 353.5C1509.5 501 1444.5 648.5 1372 651C1299.5 653.5 1408.5 514 1499 734C1571.4 910 1453.17 1055.67 1385 1106.5" stroke="black" stroke-width="16" stroke-linecap="round" stroke-linejoin="round"/>
<path d="M619 170C646.666 183 696.3 221.9 673.5 273.5C645 338 386 345.5 313.5 444C241 542.5 401.5 521.5 401.5 490.5C401.5 459.5 324 407.5 192 664C60.0005 920.5 349.499 752 313.5 708C277.5 664 184.5 803.5 218 873.5C251.5 943.5 313.5 909.5 313.5 873.5C313.5 837.5 218 869 205 1055C192 1241 345 1246 347.5 1210" stroke="black" stroke-width="16" stroke-linecap="round" stroke-linejoin="round"/>
<path d="M900.5 245V206C934.333 198.167 1012.3 187.2 1053.5 206C1105 229.5 1141.5 276 1141.5 309.5C1141.5 343 1141.5 392.5 1141.5 392.5C1141.5 392.5 1237.5 330 1260.5 371.5C1283.5 413 1260.5 434 1226.5 498.5C1192.5 563 1234.5 594 1278.5 589C1322.5 584 1358.5 539.5 1338 519C1317.5 498.5 1260.5 615 1260.5 646C1260.5 677 1260 731 1312 739C1364 747 1407.5 744.5 1400 718.5C1392.5 692.5 1242.5 726 1260.5 884C1274.9 1010.4 1345.83 1030 1379.5 1024C1395 1019.67 1425.5 1008.4 1423.5 998" stroke="black" stroke-width="16" stroke-linecap="round" stroke-linejoin="round"/>
<path d="M782 659C799.167 648.667 838.7 634.2 859.5 659" stroke="black" stroke-width="16" stroke-linecap="round" stroke-linejoin="round"/>
<path d="M528.5 672C538.833 680.5 562.1 697.5 572.5 697.5" stroke="black" stroke-width="16" stroke-linecap="round" stroke-linejoin="round"/>
<path d="M1046 589C1046.83 590.667 1044.9 599.2 1030.5 620" stroke="black" stroke-width="16" stroke-linecap="round" stroke-linejoin="round"/>
<path d="M1092.5 612.5C1085.5 621.833 1066.9 642.1 1048.5 648.5" stroke="black" stroke-width="16" stroke-linecap="round" stroke-linejoin="round"/>
<path d="M513 697.5L546.5 716" stroke="black" stroke-width="16" stroke-linecap="round" stroke-linejoin="round"/>
<path d="M761.501 286.5L738.001 268C715.668 277.5 677.701 322.4 704.501 426" stroke="black" stroke-width="16" stroke-linecap="round" stroke-linejoin="round"/>
<path d="M826 302C819 326 807.5 406 843.999 449.5" stroke="black" stroke-width="16" stroke-linecap="round" stroke-linejoin="round"/>
<path d="M955.5 276V348.5C958.167 359.833 966.6 384.5 979 392.5" stroke="black" stroke-width="16" stroke-linecap="round" stroke-linejoin="round"/>
<path d="M611.5 276V245C585.5 286.333 533.5 377.8 533.5 413C533.5 448.2 543.833 467.333 549 472.5" stroke="black" stroke-width="16" stroke-linecap="round" stroke-linejoin="round"/>
<path d="M950.5 687.5C980.5 707.333 1045.7 728.9 1066.5 656.5" stroke="black" stroke-width="16" stroke-linecap="round" stroke-linejoin="round"/>
<path d="M947.5 677C947.5 635.5 993 590.5 1051 656.5" stroke="black" stroke-width="16" stroke-linecap="round" stroke-linejoin="round"/>
<path d="M523.5 752C547.667 713.167 612 650 676 708" stroke="black" stroke-width="16" stroke-linecap="round" stroke-linejoin="round"/>
<path d="M686.5 708C664.833 748.5 603.4 814.5 531 754.5" stroke="black" stroke-width="16" stroke-linecap="round" stroke-linejoin="round"/>
<path d="M803 842.5L841.5 827" stroke="black" stroke-width="16" stroke-linecap="round" stroke-linejoin="round"/>
<path d="M523.5 602C523.333 593.333 515.8 578.6 487 589C451 602 404 651.5 404 744.5C404 837.5 472 866 523.5 868.5C575 871 679 852.5 730.5 798.5C782 744.5 787 661.5 771.5 617.5C756 573.5 676 511 619 532C562 553 474.5 617.5 451 661.5" stroke="black" stroke-width="16" stroke-linecap="round" stroke-linejoin="round"/>
<path d="M896 563C886.5 562.167 868 574 865 601C862.001 628 847 708 927 765C1007 822 1128.5 700.5 1139 646C1149.5 591.5 1096 492.5 1010 501C924 509.5 890.5 536 873.5 560.5" stroke="black" stroke-width="16" stroke-linecap="round" stroke-linejoin="round"/>
<path d="M686.5 936C704.333 960 755.1 1004.4 815.5 990C891 972 927 910 911.5 899.5" stroke="black" stroke-width="16"/>
<path d="M456.001 863.5C455.834 897.167 484.001 978.5 570 1059C655.999 1139.5 733 1179 761.5 1189.5" stroke="black" stroke-width="16" stroke-linecap="round" stroke-linejoin="round"/>
<path d="M797.5 1205C811.167 1202.5 851.105 1208.17 887 1205C916.176 1202.43 950.5 1187 968.5 1170.5C986.5 1154 1041.8 1058.8 1077 980C1112.2 901.2 1150.33 767.5 1165 710.5" stroke="black" stroke-width="16" stroke-linecap="round" stroke-linejoin="round"/>
<path d="M1022.5 296.5V265.5C1047.67 271.5 1099 295.4 1103 343C1108 402.5 1082 444.5 1066.5 465" stroke="black" stroke-width="16" stroke-linecap="round" stroke-linejoin="round"/>
<path d="M930.335 143.124C926.005 124.136 926.963 85.2913 965.43 81.8176C1013.52 77.4755 1095.96 93.8275 1074.03 116.895C1052.09 139.962 959.108 64.0133 1018.73 33.9286C1066.42 9.86083 1093.91 22.1193 1101.69 31.257" stroke="black" stroke-width="16" stroke-linecap="round" stroke-linejoin="round"/>
</g>
<defs>
<clipPath id="clip0">
<rect width="1530" height="1236" fill="white"/>
</clipPath>
</defs>
</svg>
